# xmcd
#
# Track frame offsets:
#	183
#	17238
#	32003
#	55690
#	79125
#	104038
#	123970
#	135678
#	155060
#	169795
#
# Disc length: 2544 seconds
#
# Revision: 11
# Processed by: cddbd v1.5.2PL0 Copyright (c) Steve Scherf et al.
# Submitted via: dBpowerAMP V4.0
#
DISCID=8209ee0a
DTITLE=Kitaro - Silk Road II
DYEAR=1980
DGENRE=New Age
TTITLE0=Peace
TTITLE1=Takla Makan Desert
TTITLE2=Eternal Spring
TTITLE3=Silver Moon
TTITLE4=Magical Sand Dance
TTITLE5=Year 40080
TTITLE6=Time Travel
TTITLE7=Reincarnation
TTITLE8=Dawning
TTITLE9=Tienshan
EXTD=fghj
EXTT0=
EXTT1=
EXTT2=
EXTT3=
EXTT4=
EXTT5=
EXTT6=
EXTT7=
EXTT8=
EXTT9=
PLAYORDER=
